# xmcd
#
# Track frame offsets:
#	150
#	15697
#	28682
#	56977
#	69165
#	87925
#	109395
#	123530
#	145860
#	161727
#	179105
#	191997
#	209170
#	221632
#	233825
#	249600
#	268425
#
# Disc length: 3706 seconds
#
# Revision: 1
# Processed by: cddbd v1.4PL0 Copyright (c) Steve Scherf et al.
# Submitted via: CDmax 1.8
#
DISCID=180e7811
DTITLE=matchbox blues band - live recording extravaganza
DYEAR=1992
DGENRE=Blues
TTITLE0=give me something fried
TTITLE1=mo's rocker
TTITLE2=hard-hearted woman
TTITLE3=maybelline
TTITLE4=stuff you gotta watch
TTITLE5=you may
TTITLE6=sloppy drunk
TTITLE7=preachin' the blues
TTITLE8=big road blues
TTITLE9=drinkin' wine spo-dee-o-dee
TTITLE10=key to the highway
TTITLE11=evening sun
TTITLE12=get on the right track baby
TTITLE13=hot little mama
TTITLE14=that's alright
TTITLE15=drill daddy drill
TTITLE16=my babe
EXTD=
EXTT0=
EXTT1=
EXTT2=
EXTT3=
EXTT4=
EXTT5=
EXTT6=
EXTT7=
EXTT8=
EXTT9=
EXTT10=
EXTT11=
EXTT12=
EXTT13=
EXTT14=
EXTT15=
EXTT16=
PLAYORDER=
